<svg id="图层_1" data-name="图层 1" xmlns="http://www.w3.org/2000/svg" viewBox="0 0 49.33 49.33"><title>未标题-2</title><rect x="26.67" y="29.26" width="17.21" height="1.82"/><rect x="29.7" y="21.81" width="14.17" height="2.1"/><rect x="32.74" y="14.52" width="11.14" height="2.06"/><path d="M.67,6.67v34h47v-34Zm45,32h-43v-30h43Z"/><path d="M11.22,22.68l.92,1L7,29.25a1.51,1.51,0,0,0,.19,2.12l3,2.53a1.48,1.48,0,0,0,1,.35,1.55,1.55,0,0,0,1.19-.57l3.92-5.31,4.27,4.82a1.71,1.71,0,0,0,2.41.15l.83-.73a1.71,1.71,0,0,0,.12-2.44l-5.21-5.06,1.63-2.21a1.51,1.51,0,0,0-.19-2.12l-.36-.3,3.08-3.7-1.1-.92-3.08,3.7-.36-.3a1.5,1.5,0,0,0-1.1-.34,1.47,1.47,0,0,0-1,.5l-1.62,1.72-.88-.85a5,5,0,0,0-6.44-6.83l-.82.34,2.73,2.77a.51.51,0,0,1,0,.72l-.79.78A.5.5,0,0,1,8,18.2H8A.51.51,0,0,1,7.64,18L4.92,15.28l-.35.82a5,5,0,0,0,6.65,6.58Zm0,10.11a.07.07,0,0,1-.11,0l-3-2.53a.14.14,0,0,1,0-.07l5.07-5.4,2.19,2.47Zm6-12.4.12,0v0l1.82,1.52s0,.08,0,.14l-1.54,2.09-2-2ZM5.4,17.48l1.39,1.41a1.71,1.71,0,0,0,2.42,0l.79-.78a1.71,1.71,0,0,0,0-2.42L8.62,14.31a3.82,3.82,0,0,1,3.83,5.76l-.19.31.18.31a1.69,1.69,0,0,0,.21.28L23,31a.51.51,0,0,1,0,.72l-.83.74a.51.51,0,0,1-.72,0L11.91,21.65l-.37-.51-.46.26A3.82,3.82,0,0,1,5.4,17.48Z"/></svg>