<?xml version="1.0" encoding="utf-8"?>
<!-- Generator: Adobe Illustrator 19.1.0, SVG Export Plug-In . SVG Version: 6.00 Build 0)  -->
<svg version="1.1" id="图层_1" xmlns="http://www.w3.org/2000/svg" xmlns:xlink="http://www.w3.org/1999/xlink" x="0px" y="0px"
	 viewBox="0 0 50 50" style="enable-background:new 0 0 50 50;" xml:space="preserve">
<style type="text/css">
	.st0{fill:#040000;}
</style>
<g>
	<rect x="27.5" y="32.4" class="st0" width="17.2" height="1.8"/>
	<rect x="30.5" y="25" class="st0" width="14.2" height="2.1"/>
	<rect x="33.6" y="17.7" class="st0" width="11.1" height="2.1"/>
	<path class="st0" d="M1.5,43.8h47v-34h-47V43.8z M3.5,11.8h43v30h-43V11.8z"/>
	<path class="st0" d="M19.5,28.3l1.6-2.2c0.5-0.6,0.4-1.6-0.2-2.1l-0.4-0.3l3.1-3.7L22.6,19l-3.1,3.7l-0.4-0.3
		c-0.3-0.3-0.7-0.4-1.1-0.3c-0.4,0-0.8,0.2-1,0.5l-1.6,1.7l-0.9-0.8c0.9-1.9,0.6-4.2-0.9-5.7c-1.4-1.5-3.6-1.9-5.5-1.1L7.3,17
		l2.7,2.8c0.2,0.2,0.2,0.5,0,0.7l-0.8,0.8c-0.2,0.2-0.5,0.2-0.7,0l-2.7-2.8l-0.4,0.8c-0.8,1.9-0.4,4.1,1,5.5
		c1.5,1.5,3.7,1.9,5.6,1.1l0.9,1l-5.2,5.5C7.3,33.1,7.3,34,8,34.5l3,2.5c0.3,0.2,0.6,0.3,1,0.3c0.4,0,0.9-0.2,1.2-0.6l3.9-5.3
		l4.3,4.8c0.3,0.3,0.7,0.5,1.2,0.6c0,0,0.1,0,0.1,0c0.4,0,0.8-0.2,1.1-0.4l0.8-0.7c0.7-0.6,0.8-1.7,0.1-2.4L19.5,28.3z M18.1,23.5
		l0.1,0l0,0L20,25c0,0,0,0.1,0,0.1l-1.5,2.1l-2-2L18.1,23.5z M12,36c0,0-0.1,0-0.1,0l-3-2.5c0,0,0-0.1,0-0.1l5.1-5.4l2.2,2.5L12,36z
		 M23.8,34.9L23,35.6c-0.1,0.1-0.2,0.1-0.4,0.1c-0.1,0-0.3-0.1-0.3-0.2l-9.5-10.7l-0.4-0.5l-0.5,0.3c-1.5,0.9-3.4,0.6-4.6-0.6
		c-0.9-0.9-1.2-2.1-1-3.3l1.4,1.4c0.7,0.7,1.7,0.7,2.4,0l0.8-0.8c0.7-0.7,0.7-1.7,0-2.4l-1.4-1.4c1.2-0.2,2.4,0.2,3.3,1.1
		c1.2,1.2,1.4,3.2,0.5,4.7l-0.2,0.3l0.2,0.3c0.1,0.1,0.1,0.2,0.2,0.3l10.3,10C24,34.4,24,34.7,23.8,34.9z"/>
</g>
</svg>
