<?xml version="1.0" encoding="utf-8"?>
<!-- Generator: Adobe Illustrator 19.1.0, SVG Export Plug-In . SVG Version: 6.00 Build 0)  -->
<svg version="1.1" id="图层_1" xmlns="http://www.w3.org/2000/svg" xmlns:xlink="http://www.w3.org/1999/xlink" x="0px" y="0px"
	 viewBox="0 0 50 50" style="enable-background:new 0 0 50 50;" xml:space="preserve">
<style type="text/css">
	.st0{fill:#040000;}
</style>
<g>
	<rect x="7.3" y="11.8" class="st0" width="22.9" height="1.9"/>
	<rect x="7.3" y="19.4" class="st0" width="17.9" height="2.1"/>
	<rect x="7.3" y="27.2" class="st0" width="13.9" height="2.1"/>
	<polygon class="st0" points="38.7,42.1 5.2,42.1 5.2,8.1 38.7,8.1 38.7,12.7 40.7,12.7 40.7,6.1 3.2,6.1 3.2,44.1 40.7,44.1 
		40.7,30.1 38.7,30.1 	"/>
	<path class="st0" d="M47.6,17l-3.6,3.7c-0.1,0.1-0.3,0.2-0.5,0.2c-0.2,0-0.4-0.1-0.5-0.2l-1.1-1c-0.1-0.1-0.2-0.3-0.2-0.5
		c0-0.2,0.1-0.4,0.2-0.5l3.6-3.7l-1-0.4C41.9,13.4,39,14,37.1,16c-2,2-2.5,5.1-1.2,7.7L22.1,37c-0.8,0.9-0.7,2.3,0.2,3.2l1.1,1
		c0.4,0.4,0.9,0.6,1.5,0.6c0,0,0.1,0,0.1,0c0.6,0,1.1-0.3,1.5-0.8l12.5-14.2c2.5,1.2,5.6,0.6,7.5-1.4c1.9-2,2.5-4.8,1.4-7.4L47.6,17
		z M45.6,24.3L45.6,24.3c-1.6,1.7-4.2,2-6.3,0.8l-0.6-0.3l-0.4,0.5c0,0,0,0.1-0.1,0.1L25.4,39.9c-0.1,0.1-0.3,0.2-0.5,0.2
		c-0.2,0-0.4-0.1-0.5-0.2l-1.1-1c-0.3-0.3-0.3-0.7-0.1-1l14-13.5c0.1-0.1,0.2-0.2,0.2-0.3l0.2-0.4l-0.2-0.4c-1.2-2-0.9-4.6,0.7-6.3
		c1-1,2.3-1.6,3.7-1.6c0.3,0,0.6,0,0.9,0.1l-1.9,2c-0.4,0.4-0.6,1-0.6,1.6c0,0.6,0.2,1.2,0.7,1.6l1.1,1c0.9,0.9,2.3,0.9,3.2,0l1.9-2
		C47.3,21.4,46.8,23.1,45.6,24.3z"/>
</g>
</svg>
