<?xml version="1.0" encoding="utf-8"?>
<!-- Generator: Adobe Illustrator 19.1.0, SVG Export Plug-In . SVG Version: 6.00 Build 0)  -->
<svg version="1.1" id="icon3" xmlns="http://www.w3.org/2000/svg" xmlns:xlink="http://www.w3.org/1999/xlink" x="0px" y="0px"
	 viewBox="0 0 50 50" style="enable-background:new 0 0 50 50;" xml:space="preserve">
<style type="text/css">
	.st0{fill:#040000;}
</style>
<g>
	<polygon class="st0" points="34,18.9 34,16.9 16.8,16.9 16.8,18.9 25.2,18.9 25.2,31.5 20.9,31.5 20.9,21.5 18.7,21.5 18.7,31.5 
		15.9,31.5 15.9,33.4 34.7,33.4 34.7,31.5 27.5,31.5 27.5,25.9 33.3,25.9 33.3,23.8 27.5,23.8 27.5,18.9 	"/>
	<path class="st0" d="M5.6,13.7v22.8l19.7,11.4L45,36.5V13.7L25.3,2.3L5.6,13.7z M43,35.3L25.3,45.6L7.6,35.3V14.9L25.3,4.7L43,14.9
		V35.3z"/>
</g>
</svg>
