<svg id="图层_1" data-name="图层 1" xmlns="http://www.w3.org/2000/svg" viewBox="0 0 44 44"><title>未标题-2</title><path d="M21.55,1A21.17,21.17,0,1,0,42.72,22.17,21.2,21.2,0,0,0,21.55,1Zm0,40.34A19.17,19.17,0,1,1,40.72,22.17,19.19,19.19,0,0,1,21.55,41.34Z"/><rect x="19.51" y="27.11" width="3.1" height="2.93"/><path d="M21.94,12.47q-5.27-.17-6.36,4.68l2.59.84q.58-3.18,3.6-3a2.33,2.33,0,0,1,2.43,2.17q.25,1.76-2,3.26a4.9,4.9,0,0,0-2.43,4.27v.75h2.59v-.67a2.64,2.64,0,0,1,1.51-2.51q3.26-2.26,3.18-5Q26.62,12.72,21.94,12.47Z"/></svg>