<?xml version="1.0" encoding="utf-8"?>
<!-- Generator: Adobe Illustrator 19.1.0, SVG Export Plug-In . SVG Version: 6.00 Build 0)  -->
<svg version="1.1" id="icon5" xmlns="http://www.w3.org/2000/svg" xmlns:xlink="http://www.w3.org/1999/xlink" x="0px" y="0px"
	 viewBox="0 0 50 50" style="enable-background:new 0 0 50 50;" xml:space="preserve">
<style type="text/css">
	.st0{fill:#040000;}
</style>
<g>
	<path class="st0" d="M26.2,3.9C14.5,3.9,5,13.4,5,25.1s9.5,21.2,21.2,21.2s21.2-9.5,21.2-21.2S37.8,3.9,26.2,3.9z M26.2,44.3
		C15.6,44.3,7,35.7,7,25.1S15.6,5.9,26.2,5.9s19.2,8.6,19.2,19.2S36.7,44.3,26.2,44.3z"/>
	<path class="st0" d="M26.6,15.4c-3.5-0.1-5.6,1.5-6.4,4.7l2.6,0.8c0.4-2.1,1.6-3.1,3.6-3c1.5,0.1,2.3,0.8,2.4,2.2
		c0.2,1.2-0.5,2.3-2,3.3c-1.7,1.2-2.5,2.6-2.4,4.3v0.8H27v-0.7c-0.1-0.9,0.4-1.8,1.5-2.5c2.2-1.5,3.2-3.2,3.2-5
		C31.4,17.2,29.7,15.6,26.6,15.4z"/>
	<rect x="24.1" y="30" class="st0" width="3.1" height="2.9"/>
</g>
</svg>
