<?xml version="1.0" encoding="utf-8"?>
<!-- Generator: Adobe Illustrator 19.1.0, SVG Export Plug-In . SVG Version: 6.00 Build 0)  -->
<svg version="1.1" id="icon6" xmlns="http://www.w3.org/2000/svg" xmlns:xlink="http://www.w3.org/1999/xlink" x="0px" y="0px"
	 viewBox="0 0 50 50" style="enable-background:new 0 0 50 50;" xml:space="preserve">
<style type="text/css">
	.st0{fill:#040000;}
</style>
<g>
	<path class="st0" d="M35.2,32.5L42.4,20c0.4-0.7,0.6-1.4,0.4-2.2s-0.6-1.4-1.2-1.9l-1.2-0.8L44.5,9l-1.7-1.1L38.7,14l-1.1-0.7
		c-0.7-0.4-1.4-0.6-2.2-0.4C34.7,13,34,13.4,33.6,14l-7.5,9.7l-2.6-2.5c1.8-3.7,1.2-8.1-1.7-11C19,7.3,14.9,6.5,11.3,8L9.9,8.6
		l5.1,5.2c0.2,0.2,0.3,0.5,0.3,0.8c0,0.3-0.1,0.6-0.3,0.8l-1.5,1.5c-0.5,0.4-1.2,0.4-1.6,0l-5.1-5.2L6.1,13c-1.6,3.6-0.8,7.8,2,10.5
		c2.8,2.9,7.2,3.6,10.8,2L22,29l-6.5,8.4c-0.4,0.7-0.6,1.4-0.4,2.2s0.6,1.4,1.2,1.9l7.2,4.8c0.5,0.3,1.1,0.5,1.6,0.5
		c1,0,1.9-0.5,2.5-1.4l3.5-6.1l5.9,6.7c0.6,0.6,1.3,1,2.2,1.1c0.1,0,0.1,0,0.2,0c0.8,0,1.5-0.3,2.1-0.8l1.6-1.4
		c0.6-0.6,1-1.3,1.1-2.2c0.1-0.8-0.2-1.6-0.8-2.3L35.2,32.5z M35.2,15.2c0.1-0.2,0.4-0.3,0.6-0.4c0.2,0,0.5,0,0.7,0.1l4,2.7
		c0.2,0.1,0.3,0.4,0.4,0.6c0,0.2,0,0.5-0.2,0.8l-7,12.1l-6.1-5.9L35.2,15.2z M26,44.4c-0.3,0.4-0.9,0.5-1.3,0.3l-7.2-4.8
		c-0.2-0.1-0.3-0.4-0.4-0.6c0-0.2,0-0.5,0.1-0.7l6.2-8l6.4,7.3L26,44.4z M41.8,43.4l-1.6,1.4c-0.2,0.2-0.5,0.3-0.8,0.3
		c-0.3,0-0.6-0.2-0.8-0.4L20.1,23.8L19.5,23l-0.8,0.4c-3,1.7-6.8,1.2-9.2-1.2c-1.8-1.8-2.5-4.4-2-6.9l2.9,3c1.2,1.2,3.2,1.3,4.5,0
		l1.5-1.5c0.6-0.6,0.9-1.4,0.9-2.2c0-0.8-0.3-1.6-0.9-2.2l-2.9-3c2.5-0.5,5,0.3,6.8,2.1c2.4,2.5,2.9,6.3,1.1,9.2l-0.3,0.5l0.3,0.5
		c0.1,0.2,0.2,0.3,0.4,0.5l20.1,19.4c0.2,0.2,0.3,0.5,0.3,0.8S42,43.2,41.8,43.4z"/>
</g>
</svg>
